<svg xmlns="http://www.w3.org/2000/svg" viewBox="0 0 32 32" fill="none">
  <rect width="32" height="32" rx="8" fill="url(#g)"/>
  <path fill="#fff" d="M8 12h4v8H8v-8zm2-3.5a1.5 1.5 0 1 1 0 3 1.5 1.5 0 0 1 0-3zM14 12h3.5v1H14v2h2.5v1H14v4h-2v-8h2zm6.5 0h2.5c1.4 0 2.5 1.1 2.5 2.5v3c0 1.4-1.1 2.5-2.5 2.5h-2.5v-8zm2 7c.3 0 .5-.2.5-.5v-3c0-.3-.2-.5-.5-.5h-.5v4h.5z"/>
  <defs>
    <linearGradient id="g" x1="0" y1="0" x2="32" y2="32" gradientUnits="userSpaceOnUse">
      <stop stop-color="#0A66C2"/>
      <stop offset="1" stop-color="#004182"/>
    </linearGradient>
  </defs>
</svg>
